<mxfile host="app.diagrams.net" modified="2021-03-09T19:50:12.398Z" agent="5.0 (X11; Linux x86_64) AppleWebKit/537.36 (KHTML, like Gecko) Chrome/89.0.4389.72 Safari/537.36" etag="NIi3IHBMy4AVrWYl6I3y" version="14.4.5" type="github">
  <diagram id="doXfwmdUJ04xw1du2xLU" name="Page-1">
    <mxGraphModel dx="2031" dy="1046" grid="1" gridSize="10" guides="1" tooltips="1" connect="1" arrows="1" fold="1" page="1" pageScale="1" pageWidth="827" pageHeight="1169" math="0" shadow="0">
      <root>
        <mxCell id="0" />
        <mxCell id="1" parent="0" />
        <mxCell id="L-MPhvsr9BknUOaj2us3-6" value="" style="rounded=1;whiteSpace=wrap;html=1;" vertex="1" parent="1">
          <mxGeometry x="30" y="100" width="980" height="410" as="geometry" />
        </mxCell>
        <mxCell id="L-MPhvsr9BknUOaj2us3-4" value="" style="group" vertex="1" connectable="0" parent="1">
          <mxGeometry x="1190" y="100" width="250" height="150" as="geometry" />
        </mxCell>
        <mxCell id="L-MPhvsr9BknUOaj2us3-2" value="" style="rounded=1;whiteSpace=wrap;html=1;" vertex="1" parent="L-MPhvsr9BknUOaj2us3-4">
          <mxGeometry width="250" height="150" as="geometry" />
        </mxCell>
        <mxCell id="L-MPhvsr9BknUOaj2us3-3" value="" style="endArrow=none;html=1;entryX=0.001;entryY=0.297;entryDx=0;entryDy=0;entryPerimeter=0;exitX=1;exitY=0.298;exitDx=0;exitDy=0;exitPerimeter=0;" edge="1" parent="L-MPhvsr9BknUOaj2us3-4" source="L-MPhvsr9BknUOaj2us3-2" target="L-MPhvsr9BknUOaj2us3-2">
          <mxGeometry width="50" height="50" relative="1" as="geometry">
            <mxPoint x="113.63636363636365" y="125" as="sourcePoint" />
            <mxPoint x="170.45454545454547" y="62.5" as="targetPoint" />
          </mxGeometry>
        </mxCell>
        <mxCell id="L-MPhvsr9BknUOaj2us3-5" value="Text" style="text;html=1;strokeColor=none;fillColor=none;align=center;verticalAlign=middle;whiteSpace=wrap;rounded=0;" vertex="1" parent="L-MPhvsr9BknUOaj2us3-4">
          <mxGeometry x="20" y="10" width="210" height="20" as="geometry" />
        </mxCell>
        <mxCell id="L-MPhvsr9BknUOaj2us3-8" value="Мастер по приемке" style="text;html=1;strokeColor=none;fillColor=none;align=center;verticalAlign=middle;whiteSpace=wrap;rounded=0;fontSize=18;" vertex="1" parent="1">
          <mxGeometry x="60" y="110" width="310" height="20" as="geometry" />
        </mxCell>
        <mxCell id="L-MPhvsr9BknUOaj2us3-9" value="" style="ellipse;html=1;shape=startState;fillColor=#000000;strokeColor=#ff0000;" vertex="1" parent="1">
          <mxGeometry x="100" y="150" width="30" height="30" as="geometry" />
        </mxCell>
        <mxCell id="L-MPhvsr9BknUOaj2us3-10" value="" style="edgeStyle=orthogonalEdgeStyle;html=1;verticalAlign=bottom;endArrow=open;endSize=8;strokeColor=#ff0000;entryX=0.442;entryY=-0.005;entryDx=0;entryDy=0;entryPerimeter=0;" edge="1" source="L-MPhvsr9BknUOaj2us3-9" parent="1" target="L-MPhvsr9BknUOaj2us3-13">
          <mxGeometry relative="1" as="geometry">
            <mxPoint x="110" y="250" as="targetPoint" />
          </mxGeometry>
        </mxCell>
        <mxCell id="L-MPhvsr9BknUOaj2us3-11" value="" style="ellipse;html=1;shape=endState;fillColor=#000000;strokeColor=#ff0000;" vertex="1" parent="1">
          <mxGeometry x="440" y="410" width="30" height="30" as="geometry" />
        </mxCell>
        <mxCell id="L-MPhvsr9BknUOaj2us3-12" value="" style="group;verticalAlign=top;" vertex="1" connectable="0" parent="1">
          <mxGeometry x="80" y="230" width="200" height="130" as="geometry" />
        </mxCell>
        <mxCell id="L-MPhvsr9BknUOaj2us3-13" value="" style="rounded=1;whiteSpace=wrap;html=1;" vertex="1" parent="L-MPhvsr9BknUOaj2us3-12">
          <mxGeometry width="200" height="130" as="geometry" />
        </mxCell>
        <mxCell id="L-MPhvsr9BknUOaj2us3-14" value="" style="endArrow=none;html=1;entryX=0.001;entryY=0.297;entryDx=0;entryDy=0;entryPerimeter=0;exitX=1;exitY=0.298;exitDx=0;exitDy=0;exitPerimeter=0;" edge="1" parent="L-MPhvsr9BknUOaj2us3-12" source="L-MPhvsr9BknUOaj2us3-13" target="L-MPhvsr9BknUOaj2us3-13">
          <mxGeometry width="50" height="50" relative="1" as="geometry">
            <mxPoint x="72.72727272727273" y="98.48484848484848" as="sourcePoint" />
            <mxPoint x="109.09090909090911" y="49.24242424242424" as="targetPoint" />
          </mxGeometry>
        </mxCell>
        <mxCell id="L-MPhvsr9BknUOaj2us3-15" value="Оформляет заказ" style="text;html=1;strokeColor=none;fillColor=none;align=center;verticalAlign=middle;whiteSpace=wrap;rounded=0;fontSize=16;" vertex="1" parent="L-MPhvsr9BknUOaj2us3-12">
          <mxGeometry x="21.4" y="11.81" width="157.2" height="15.76" as="geometry" />
        </mxCell>
        <mxCell id="L-MPhvsr9BknUOaj2us3-17" value="&lt;font style=&quot;font-size: 14px&quot;&gt;entry / принять машину&amp;nbsp;&lt;br&gt;do / оформление документов&lt;br&gt;exit / создать ТЗ&amp;nbsp;&lt;br&gt;&lt;/font&gt;" style="text;html=1;strokeColor=none;fillColor=none;align=left;verticalAlign=top;whiteSpace=wrap;rounded=0;fontSize=18;" vertex="1" parent="L-MPhvsr9BknUOaj2us3-12">
          <mxGeometry x="4" y="37.45" width="200" height="94.55" as="geometry" />
        </mxCell>
        <mxCell id="L-MPhvsr9BknUOaj2us3-19" value="" style="group" vertex="1" connectable="0" parent="1">
          <mxGeometry x="314" y="200" width="206" height="120" as="geometry" />
        </mxCell>
        <mxCell id="L-MPhvsr9BknUOaj2us3-20" value="" style="rounded=1;whiteSpace=wrap;html=1;" vertex="1" parent="L-MPhvsr9BknUOaj2us3-19">
          <mxGeometry width="200" height="120" as="geometry" />
        </mxCell>
        <mxCell id="L-MPhvsr9BknUOaj2us3-21" value="" style="endArrow=none;html=1;entryX=0.001;entryY=0.297;entryDx=0;entryDy=0;entryPerimeter=0;exitX=1;exitY=0.298;exitDx=0;exitDy=0;exitPerimeter=0;" edge="1" parent="L-MPhvsr9BknUOaj2us3-19" source="L-MPhvsr9BknUOaj2us3-20" target="L-MPhvsr9BknUOaj2us3-20">
          <mxGeometry width="50" height="50" relative="1" as="geometry">
            <mxPoint x="90.90909090909092" y="100" as="sourcePoint" />
            <mxPoint x="136.36363636363637" y="50" as="targetPoint" />
          </mxGeometry>
        </mxCell>
        <mxCell id="L-MPhvsr9BknUOaj2us3-22" value="Работает над ТЗ" style="text;html=1;strokeColor=none;fillColor=none;align=center;verticalAlign=middle;whiteSpace=wrap;rounded=0;fontSize=16;" vertex="1" parent="L-MPhvsr9BknUOaj2us3-19">
          <mxGeometry x="16" y="8" width="168" height="16" as="geometry" />
        </mxCell>
        <mxCell id="L-MPhvsr9BknUOaj2us3-33" value="" style="endArrow=open;endFill=1;endSize=12;html=1;fontSize=16;exitX=0.459;exitY=1.031;exitDx=0;exitDy=0;exitPerimeter=0;entryX=0.222;entryY=0.993;entryDx=0;entryDy=0;entryPerimeter=0;" edge="1" parent="L-MPhvsr9BknUOaj2us3-19" source="L-MPhvsr9BknUOaj2us3-20" target="L-MPhvsr9BknUOaj2us3-20">
          <mxGeometry width="160" relative="1" as="geometry">
            <mxPoint x="86" y="160" as="sourcePoint" />
            <mxPoint x="226" y="160" as="targetPoint" />
            <Array as="points">
              <mxPoint x="92" y="150" />
              <mxPoint x="44" y="150" />
            </Array>
          </mxGeometry>
        </mxCell>
        <mxCell id="L-MPhvsr9BknUOaj2us3-29" value="&lt;font style=&quot;font-size: 14px&quot;&gt;entry / корректировать ТЗ (n)&lt;br&gt;&amp;nbsp;&lt;br&gt;&lt;/font&gt;" style="text;html=1;strokeColor=none;fillColor=none;align=left;verticalAlign=top;whiteSpace=wrap;rounded=0;fontSize=18;" vertex="1" parent="L-MPhvsr9BknUOaj2us3-19">
          <mxGeometry x="3" y="40" width="200" height="40" as="geometry" />
        </mxCell>
        <mxCell id="L-MPhvsr9BknUOaj2us3-24" value="" style="endArrow=open;endFill=1;endSize=12;html=1;fontSize=16;exitX=0.466;exitY=1.013;exitDx=0;exitDy=0;exitPerimeter=0;entryX=0.528;entryY=-0.019;entryDx=0;entryDy=0;entryPerimeter=0;" edge="1" parent="1" source="L-MPhvsr9BknUOaj2us3-17" target="L-MPhvsr9BknUOaj2us3-20">
          <mxGeometry width="160" relative="1" as="geometry">
            <mxPoint x="330" y="370" as="sourcePoint" />
            <mxPoint x="490" y="370" as="targetPoint" />
            <Array as="points">
              <mxPoint x="177" y="390" />
              <mxPoint x="300" y="390" />
              <mxPoint x="300" y="170" />
              <mxPoint x="420" y="170" />
            </Array>
          </mxGeometry>
        </mxCell>
        <mxCell id="L-MPhvsr9BknUOaj2us3-25" value="жалоба n [ Документы оформлены ]&amp;nbsp;" style="text;html=1;strokeColor=none;fillColor=none;align=center;verticalAlign=middle;whiteSpace=wrap;rounded=0;fontSize=13;" vertex="1" parent="1">
          <mxGeometry x="250" y="140" width="231" height="20" as="geometry" />
        </mxCell>
        <mxCell id="L-MPhvsr9BknUOaj2us3-34" value="&lt;meta charset=&quot;utf-8&quot;&gt;&lt;span style=&quot;color: rgb(0, 0, 0); font-family: helvetica; font-size: 13px; font-style: normal; font-weight: 400; letter-spacing: normal; text-align: center; text-indent: 0px; text-transform: none; word-spacing: 0px; background-color: rgb(248, 249, 250); display: inline; float: none;&quot;&gt;жалоба n&lt;/span&gt;" style="text;whiteSpace=wrap;html=1;fontSize=16;" vertex="1" parent="1">
          <mxGeometry x="354" y="347" width="60" height="25" as="geometry" />
        </mxCell>
        <mxCell id="L-MPhvsr9BknUOaj2us3-35" value="" style="endArrow=open;endFill=1;endSize=12;html=1;fontSize=16;exitX=1.003;exitY=0.632;exitDx=0;exitDy=0;exitPerimeter=0;entryX=-0.002;entryY=0.451;entryDx=0;entryDy=0;entryPerimeter=0;" edge="1" parent="1" source="L-MPhvsr9BknUOaj2us3-20" target="L-MPhvsr9BknUOaj2us3-56">
          <mxGeometry width="160" relative="1" as="geometry">
            <mxPoint x="540" y="250" as="sourcePoint" />
            <mxPoint x="721.8000000000002" y="274.98" as="targetPoint" />
          </mxGeometry>
        </mxCell>
        <mxCell id="L-MPhvsr9BknUOaj2us3-37" value="ТЗ готово [ жалоб больше нет ]&amp;nbsp;" style="text;html=1;strokeColor=none;fillColor=none;align=center;verticalAlign=middle;whiteSpace=wrap;rounded=0;fontSize=13;" vertex="1" parent="1">
          <mxGeometry x="510" y="190" width="231" height="20" as="geometry" />
        </mxCell>
        <mxCell id="L-MPhvsr9BknUOaj2us3-41" value="" style="group" vertex="1" connectable="0" parent="1">
          <mxGeometry x="620" y="360" width="250" height="120" as="geometry" />
        </mxCell>
        <mxCell id="L-MPhvsr9BknUOaj2us3-46" value="" style="group" vertex="1" connectable="0" parent="L-MPhvsr9BknUOaj2us3-41">
          <mxGeometry width="250" height="120" as="geometry" />
        </mxCell>
        <mxCell id="L-MPhvsr9BknUOaj2us3-42" value="" style="rounded=1;whiteSpace=wrap;html=1;" vertex="1" parent="L-MPhvsr9BknUOaj2us3-46">
          <mxGeometry width="250" height="120" as="geometry" />
        </mxCell>
        <mxCell id="L-MPhvsr9BknUOaj2us3-45" value="Контролирует сроки выполнения" style="text;html=1;strokeColor=none;fillColor=none;align=center;verticalAlign=middle;whiteSpace=wrap;rounded=0;fontSize=16;" vertex="1" parent="L-MPhvsr9BknUOaj2us3-46">
          <mxGeometry x="35.5" y="7" width="179" height="31.999999999999996" as="geometry" />
        </mxCell>
        <mxCell id="L-MPhvsr9BknUOaj2us3-43" value="" style="endArrow=none;html=1;entryX=0.004;entryY=0.398;entryDx=0;entryDy=0;entryPerimeter=0;exitX=0.996;exitY=0.395;exitDx=0;exitDy=0;exitPerimeter=0;" edge="1" parent="L-MPhvsr9BknUOaj2us3-46" source="L-MPhvsr9BknUOaj2us3-42" target="L-MPhvsr9BknUOaj2us3-42">
          <mxGeometry width="50" height="50" relative="1" as="geometry">
            <mxPoint x="113.63636363636365" y="99.99999999999999" as="sourcePoint" />
            <mxPoint x="170.45454545454547" y="49.99999999999999" as="targetPoint" />
            <Array as="points" />
          </mxGeometry>
        </mxCell>
        <mxCell id="L-MPhvsr9BknUOaj2us3-47" value="санкции / санкционировать исполнителя" style="text;html=1;strokeColor=none;fillColor=none;align=left;verticalAlign=middle;whiteSpace=wrap;rounded=0;fontSize=16;" vertex="1" parent="L-MPhvsr9BknUOaj2us3-46">
          <mxGeometry x="13" y="62.99999999999999" width="233" height="31.999999999999996" as="geometry" />
        </mxCell>
        <mxCell id="L-MPhvsr9BknUOaj2us3-50" value="" style="endArrow=open;endFill=1;endSize=12;html=1;fontSize=16;exitX=1;exitY=0.42;exitDx=0;exitDy=0;exitPerimeter=0;entryX=1.02;entryY=0.583;entryDx=0;entryDy=0;entryPerimeter=0;" edge="1" parent="1" source="L-MPhvsr9BknUOaj2us3-56" target="L-MPhvsr9BknUOaj2us3-42">
          <mxGeometry width="160" relative="1" as="geometry">
            <mxPoint x="842.4000000000001" y="262.55999999999995" as="sourcePoint" />
            <mxPoint x="1060" y="300" as="targetPoint" />
            <Array as="points">
              <mxPoint x="950" y="272" />
              <mxPoint x="950" y="430" />
            </Array>
          </mxGeometry>
        </mxCell>
        <mxCell id="L-MPhvsr9BknUOaj2us3-52" value="&lt;div style=&quot;text-align: center&quot;&gt;&lt;span style=&quot;font-size: 13px&quot;&gt;&lt;font face=&quot;helvetica&quot;&gt;Техническое задание передано&lt;/font&gt;&lt;/span&gt;&lt;/div&gt;" style="text;whiteSpace=wrap;html=1;fontSize=16;" vertex="1" parent="1">
          <mxGeometry x="840" y="210" width="150" height="40" as="geometry" />
        </mxCell>
        <mxCell id="L-MPhvsr9BknUOaj2us3-53" value="" style="endArrow=open;endFill=1;endSize=12;html=1;fontSize=16;exitX=0.002;exitY=0.579;exitDx=0;exitDy=0;exitPerimeter=0;entryX=0.978;entryY=0.655;entryDx=0;entryDy=0;entryPerimeter=0;" edge="1" parent="1" source="L-MPhvsr9BknUOaj2us3-42" target="L-MPhvsr9BknUOaj2us3-11">
          <mxGeometry width="160" relative="1" as="geometry">
            <mxPoint x="540" y="480" as="sourcePoint" />
            <mxPoint x="700" y="480" as="targetPoint" />
          </mxGeometry>
        </mxCell>
        <mxCell id="L-MPhvsr9BknUOaj2us3-54" value="&lt;div style=&quot;&quot;&gt;&lt;font face=&quot;helvetica&quot;&gt;&lt;span style=&quot;font-size: 13px&quot;&gt;Задание выполнено&lt;/span&gt;&lt;/font&gt;&lt;/div&gt;" style="text;whiteSpace=wrap;html=1;fontSize=16;align=center;" vertex="1" parent="1">
          <mxGeometry x="470" y="393" width="150" height="30" as="geometry" />
        </mxCell>
        <mxCell id="L-MPhvsr9BknUOaj2us3-55" value="" style="group" vertex="1" connectable="0" parent="1">
          <mxGeometry x="640" y="120" width="250" height="100" as="geometry" />
        </mxCell>
        <mxCell id="L-MPhvsr9BknUOaj2us3-61" value="" style="group" vertex="1" connectable="0" parent="L-MPhvsr9BknUOaj2us3-55">
          <mxGeometry x="-40" y="110" width="250" height="100" as="geometry" />
        </mxCell>
        <mxCell id="L-MPhvsr9BknUOaj2us3-56" value="" style="rounded=1;whiteSpace=wrap;html=1;" vertex="1" parent="L-MPhvsr9BknUOaj2us3-61">
          <mxGeometry width="250" height="100" as="geometry" />
        </mxCell>
        <mxCell id="L-MPhvsr9BknUOaj2us3-58" value="&lt;font style=&quot;font-size: 16px&quot;&gt;Передача ТЗ исполнителю&lt;/font&gt;" style="text;html=1;strokeColor=none;fillColor=none;align=center;verticalAlign=middle;whiteSpace=wrap;rounded=0;" vertex="1" parent="L-MPhvsr9BknUOaj2us3-61">
          <mxGeometry x="20" y="6.666666666666667" width="210" height="13.333333333333334" as="geometry" />
        </mxCell>
        <mxCell id="L-MPhvsr9BknUOaj2us3-60" value="do / найти исполнителя&lt;br&gt;exit / дать ТЗ исполнителю" style="text;html=1;strokeColor=none;fillColor=none;align=left;verticalAlign=middle;whiteSpace=wrap;rounded=0;fontSize=16;" vertex="1" parent="L-MPhvsr9BknUOaj2us3-61">
          <mxGeometry x="17" y="40" width="213" height="50" as="geometry" />
        </mxCell>
        <mxCell id="L-MPhvsr9BknUOaj2us3-57" value="" style="endArrow=none;html=1;entryX=0.001;entryY=0.297;entryDx=0;entryDy=0;entryPerimeter=0;exitX=1;exitY=0.298;exitDx=0;exitDy=0;exitPerimeter=0;" edge="1" parent="L-MPhvsr9BknUOaj2us3-61" source="L-MPhvsr9BknUOaj2us3-56" target="L-MPhvsr9BknUOaj2us3-56">
          <mxGeometry width="50" height="50" relative="1" as="geometry">
            <mxPoint x="113.63636363636365" y="83.33333333333334" as="sourcePoint" />
            <mxPoint x="170.45454545454547" y="41.66666666666667" as="targetPoint" />
          </mxGeometry>
        </mxCell>
      </root>
    </mxGraphModel>
  </diagram>
</mxfile>
